<svg xmlns="http://www.w3.org/2000/svg" xmlns:xlink="http://www.w3.org/1999/xlink" viewBox="0 0 152.3 138.26"><defs><style>.cls-1{fill:url(#linear-gradient);}.cls-2{fill:url(#linear-gradient-2);}.cls-3{fill:url(#linear-gradient-3);}.cls-4{fill:#bce2f8;}</style><linearGradient id="linear-gradient" x1="68.39" y1="138.92" x2="107.77" y2="-10.66" gradientUnits="userSpaceOnUse"><stop offset="0"/><stop offset="0" stop-color="#000005"/><stop offset="0" stop-color="#020016"/><stop offset="0" stop-color="#020021"/><stop offset="0" stop-color="#030028"/><stop offset="0" stop-color="#03002a"/><stop offset="1" stop-color="#e8e8ec"/><stop offset="1" stop-color="#fff"/></linearGradient><linearGradient id="linear-gradient-2" x1="-3.7" y1="59.54" x2="15.23" y2="0.35" gradientUnits="userSpaceOnUse"><stop offset="0.33" stop-color="#03002a"/><stop offset="0.62" stop-color="#959db2"/><stop offset="0.95" stop-color="#e4f2fc"/><stop offset="1" stop-color="#e8e8ec"/><stop offset="1" stop-color="#fff"/></linearGradient><linearGradient id="linear-gradient-3" x1="130.35" y1="73.5" x2="141.78" y2="10.79" xlink:href="#linear-gradient-2"/></defs><title>vanillite</title><g id="Layer_2" data-name="Layer 2"><g id="Layer_1-2" data-name="Layer 1"><path class="cls-1" d="M37.39,85.78a33.24,33.24,0,0,0-7.26,2,34.12,34.12,0,0,0-6.2,3.43,9.47,9.47,0,0,0-2.47,2.23,4.14,4.14,0,0,0-1,1.94c-.19,1.53,1.45,3,2.89,4,7,5.06,16.76,5.84,18.24,6a55.2,55.2,0,0,0,6.47.07c0,2.5,0,11,1,16.41a16.17,16.17,0,0,0,.75,2.93A20,20,0,0,0,53.62,131c3.59,3.82,8.64,5.24,11.46,6,7.08,1.91,12.69,1.34,18.83.73a51.68,51.68,0,0,0,16.18-4.82,7.07,7.07,0,0,0,1.41-1,7.29,7.29,0,0,0,1.15-1.4c2.47-4,3.65-11.8,3.65-11.8.37-2.47.76-5.28,1.12-8.39a54.17,54.17,0,0,0,5.43.42,47.57,47.57,0,0,0,10.52-.68,37.25,37.25,0,0,0,8.25-2.51,10.34,10.34,0,0,0,5.08-3.62,4.55,4.55,0,0,0,.91-2.51,4.84,4.84,0,0,0-1.24-3.08,21.6,21.6,0,0,0-7.44-5.47,94.56,94.56,0,0,0-9.46-3.9,17.94,17.94,0,0,1-5.12,5c-10.56,6.76-24.51-.7-25.61-1.32a18.91,18.91,0,0,1-4.43,4.25c-7.38,5-18.8,4.8-25.41-1a16.69,16.69,0,0,1-3.34-4.07,15.58,15.58,0,0,1-9,2.49c-.59-.06-6-.62-8.23-4.93A8.59,8.59,0,0,1,37.39,85.78Z"/><path class="cls-2" d="M12.13.47C13.35,3,14.57,5.7,15.72,8.68A104.22,104.22,0,0,1,19.3,19.89,81.56,81.56,0,0,1,11.09,31c-1,1.19-2.08,2.3-3.12,3.35a45.34,45.34,0,0,1-8-18.6A34.27,34.27,0,0,1,12.13.47Z"/><path class="cls-3" d="M139.59,11.34A54.84,54.84,0,0,1,152.3,30.17,39.62,39.62,0,0,1,138,47.85q-1.89-1.66-3.81-3.58a87.57,87.57,0,0,1-10.29-12.36,49.12,49.12,0,0,1,15.72-20.57Z"/><path class="cls-4" d="M62.66,43A79.42,79.42,0,0,1,54,39.79a7.45,7.45,0,0,0-3.58-.88,5.22,5.22,0,0,0-5,5.58c.11,4.06,4.62,6.92,7.07,8.47a26.15,26.15,0,0,0,7.91,3.26,36.57,36.57,0,0,0,8.7,1c4.16.14,7.23.25,11.12-.88a25.07,25.07,0,0,0,6.47-3.07c2.35-1.57,3.2-2.71,3.67-3.77a5.34,5.34,0,0,0-1.11-6.33c-.43-.39-1.74-1.45-5.54-1.3-3.15.12-3.58.91-7.17,1.58a31.35,31.35,0,0,1-9.72.23A28.35,28.35,0,0,1,62.66,43Z"/><path class="cls-4" d="M45.78,0A4.52,4.52,0,0,1,48.7,1.66,7.55,7.55,0,0,1,50.42,5a30.32,30.32,0,0,1,.11,12.18,26.36,26.36,0,0,1-2.06,6.23,11.19,11.19,0,0,1-3.14,4.18,4.16,4.16,0,0,1-2.12,1,4.51,4.51,0,0,1-3.15-1.15,9.22,9.22,0,0,1-2.91-3.83,20.68,20.68,0,0,1-1.38-10.81A22,22,0,0,1,40,3.61,11.52,11.52,0,0,1,43.27.8,4.69,4.69,0,0,1,45.78,0Z"/><path class="cls-4" d="M100.2,4.46a5.27,5.27,0,0,1,2.73,1.1c1.39,1,2.41,2.68,3.16,6.06a29.76,29.76,0,0,1-.6,14.5,18.22,18.22,0,0,1-3,6,6.89,6.89,0,0,1-3.15,2.65A5.53,5.53,0,0,1,96,34.9a5.87,5.87,0,0,1-2.55-1.62A10.74,10.74,0,0,1,90.74,28c-1.83-7.67.83-14.82,1.36-16.2A12.35,12.35,0,0,1,96,6,6.09,6.09,0,0,1,100.2,4.46Z"/></g></g></svg>